<?xml version="1.0" encoding="UTF-8"?>
<svg id="Layer_1" data-name="Layer 1" xmlns="http://www.w3.org/2000/svg" xmlns:xlink="http://www.w3.org/1999/xlink" viewBox="0 0 793.7 793.7">
  <defs>
    <style>
      .cls-1 {
        fill: aqua;
      }

      .cls-2 {
        fill: lime;
      }

      .cls-3 {
        fill: #878787;
      }

      .cls-4 {
        clip-path: url(#clippath);
      }

      .cls-5 {
        fill: none;
      }
    </style>
    <clipPath id="clippath">
      <rect class="cls-5" x=".12" y=".14" width="793.58" height="793.56"/>
    </clipPath>
  </defs>
  <path class="cls-3" d="M487.66,171.29c1.83-1.57,2.75-3.72,2.75-6.44,0-1.7-.25-3.07-.75-4.1-.5-1.03-1.18-1.83-2.03-2.39-.85-.56-1.79-.98-2.81-1.26-1.02-.28-2.02-.52-3.01-.74-.93-.2-1.8-.39-2.59-.59-.8-.2-1.44-.47-1.92-.82-.48-.35-.73-.85-.73-1.49,0-.68,.29-1.21,.89-1.59,.59-.38,1.4-.56,2.42-.56s1.86,.25,2.63,.75c.77,.5,1.39,1.22,1.85,2.15l5.64-2.82c-.63-2.08-1.81-3.67-3.55-4.78-1.74-1.11-3.89-1.67-6.47-1.67-3.04,0-5.44,.77-7.18,2.3-1.75,1.53-2.62,3.62-2.62,6.27,0,1.54,.24,2.79,.71,3.75,.47,.96,1.1,1.71,1.87,2.27s1.62,.99,2.57,1.32c.94,.32,1.88,.62,2.83,.89,1.02,.23,1.98,.45,2.87,.64,.89,.2,1.62,.48,2.18,.86,.55,.38,.83,.95,.83,1.72,0,.72-.32,1.28-.95,1.69-.63,.41-1.51,.62-2.62,.62-1.2,0-2.29-.29-3.26-.86-.98-.57-1.74-1.39-2.3-2.44l-5.64,2.93c.57,2.15,1.81,3.81,3.72,4.99,1.91,1.18,4.26,1.77,7.08,1.77,3.22,0,5.75-.79,7.59-2.36h0Z"/>
  <path class="cls-3" d="M660.38,617.61v-7.32c0-1.76-.38-3.12-1.13-4.08-.75-.96-1.82-1.45-3.19-1.45-.77,0-1.48,.22-2.12,.65-.64,.43-1.16,1.06-1.56,1.86l.62,2.93c0-.71,.17-1.26,.52-1.64,.35-.39,.84-.58,1.48-.58s1.15,.2,1.51,.61c.35,.4,.53,.97,.53,1.71v7.31h3.34Zm-14.77,0v-12.67h-3.35v12.67h3.35Zm7.38,0v-7.32c0-1.76-.37-3.12-1.11-4.08-.74-.96-1.79-1.45-3.15-1.45-.77,0-1.44,.21-2,.62-.56,.41-1.02,1.01-1.39,1.77l.26,2.81c0-.63,.17-1.11,.51-1.46,.34-.35,.82-.52,1.43-.52,.67,0,1.19,.2,1.56,.61,.36,.4,.54,.97,.54,1.71v7.31h3.34Z"/>
  <path class="cls-3" d="M506.29,617.61v-7.32c0-1.76-.38-3.12-1.13-4.08-.75-.96-1.82-1.45-3.19-1.45-.77,0-1.48,.22-2.12,.65-.64,.43-1.16,1.06-1.56,1.86l.62,2.93c0-.71,.17-1.26,.52-1.64,.34-.39,.84-.58,1.48-.58s1.15,.2,1.51,.61c.35,.4,.53,.97,.53,1.71v7.31h3.35Zm-14.77,0v-12.67h-3.35v12.67h3.35Zm7.39,0v-7.32c0-1.76-.37-3.12-1.11-4.08-.74-.96-1.79-1.45-3.15-1.45-.77,0-1.44,.21-2,.62-.56,.41-1.02,1.01-1.39,1.77l.26,2.81c0-.63,.17-1.11,.51-1.46,.34-.35,.82-.52,1.44-.52,.68,0,1.19,.2,1.56,.61,.36,.4,.54,.97,.54,1.71v7.31h3.35Z"/>
  <path class="cls-1" d="M408.65,676.78v-11.23c0-1.83-.39-3.24-1.18-4.25-.78-1.01-1.89-1.51-3.32-1.51-.91,0-1.74,.27-2.49,.82-.75,.55-1.35,1.34-1.81,2.37l.55,3c0-.73,.17-1.29,.52-1.68,.35-.39,.85-.59,1.49-.59s1.15,.2,1.5,.6c.34,.4,.52,.98,.52,1.73v10.75h4.22Zm-16.47,0v-16.73h-4.22v16.73h4.22Zm8.22,0v-11.41c0-1.78-.39-3.16-1.16-4.13-.77-.97-1.88-1.46-3.3-1.46-.91,0-1.72,.27-2.41,.81-.69,.54-1.25,1.32-1.68,2.34l.34,2.88c0-.68,.17-1.2,.5-1.56,.33-.36,.81-.55,1.43-.55,.68,0,1.19,.2,1.55,.6,.36,.4,.53,.98,.53,1.73v10.75h4.21Z"/>
  <path class="cls-3" d="M559.81,604.94h-3.54l-5.91,8.11,.45,3.69,9-11.79h0Zm-7.67,12.67v-17.75h-3.34v17.75h3.34Zm8.29,0l-4.31-8.2-2.76,1.66,3.2,6.54h3.87Zm19.7,0v-7.32c0-1.76-.38-3.12-1.13-4.08-.75-.96-1.82-1.45-3.19-1.45-.77,0-1.48,.22-2.12,.65-.64,.43-1.16,1.06-1.56,1.86l.62,2.93c0-.71,.17-1.26,.52-1.64,.34-.39,.84-.58,1.48-.58s1.15,.2,1.51,.61c.35,.4,.53,.97,.53,1.71v7.31h3.35Zm-14.77,0v-12.67h-3.35v12.67h3.35Zm7.39,0v-7.32c0-1.76-.37-3.12-1.11-4.08-.74-.96-1.79-1.45-3.15-1.45-.77,0-1.44,.21-2,.62-.56,.41-1.02,1.01-1.39,1.77l.26,2.81c0-.63,.17-1.11,.51-1.46,.34-.35,.82-.52,1.43-.52,.68,0,1.2,.2,1.56,.61,.36,.4,.54,.97,.54,1.71v7.31h3.34Z"/>
  <path class="cls-3" d="M407.14,604.94h-3.54l-5.91,8.11,.45,3.69,9-11.79h0Zm-7.67,12.67v-17.75h-3.34v17.75h3.34Zm8.29,0l-4.31-8.2-2.76,1.66,3.2,6.54h3.87Zm19.7,0v-7.32c0-1.76-.38-3.12-1.13-4.08-.75-.96-1.82-1.45-3.19-1.45-.77,0-1.48,.22-2.12,.65s-1.16,1.06-1.56,1.86l.62,2.93c0-.71,.17-1.26,.52-1.64,.34-.39,.84-.58,1.48-.58s1.15,.2,1.51,.61c.35,.4,.53,.97,.53,1.71v7.31h3.35Zm-14.77,0v-12.67h-3.35v12.67h3.35Zm7.38,0v-7.32c0-1.76-.37-3.12-1.11-4.08-.74-.96-1.79-1.45-3.15-1.45-.77,0-1.44,.21-2,.62-.56,.41-1.02,1.01-1.39,1.77l.26,2.81c0-.63,.17-1.11,.51-1.46,.34-.35,.82-.52,1.43-.52,.68,0,1.2,.2,1.56,.61,.36,.4,.54,.97,.54,1.71v7.31h3.35Z"/>
  <path class="cls-3" d="M381.68,550.37c.82-.33,1.56-.8,2.22-1.4l-2.18-1.94c-.36,.29-.76,.52-1.2,.68-.44,.16-.88,.24-1.33,.24-.87,0-1.55-.24-2.03-.71-.48-.47-.73-1.14-.73-2v-1.61c0-.88,.22-1.56,.67-2.04,.44-.48,1.07-.72,1.87-.72,.63,0,1.12,.2,1.49,.6,.37,.4,.59,.97,.68,1.69l.04,.29h-5.62v2.26h8.67v-.83c0-2.24-.46-3.97-1.37-5.21-.92-1.23-2.21-1.85-3.89-1.85-1.78,0-3.15,.52-4.12,1.55-.97,1.03-1.46,2.5-1.46,4.38v1.43c0,1.81,.51,3.2,1.52,4.19,1.01,.99,2.44,1.48,4.28,1.48,.84,0,1.67-.17,2.49-.49h0Zm15.49,.31v-8.14c0-1.5-.46-2.66-1.37-3.48-.91-.82-2.2-1.23-3.87-1.23-1.01,0-1.93,.16-2.76,.48-.83,.32-1.5,.77-2,1.35l2.08,2.04c.36-.28,.77-.5,1.23-.65,.46-.15,.93-.23,1.4-.23,.72,0,1.27,.16,1.66,.48,.39,.32,.59,.77,.59,1.35v8.03h3.04Zm-4.84-.04c.56-.15,1.03-.38,1.41-.7,.38-.31,.6-.71,.65-1.19l-.26-1.84c0,.43-.22,.75-.66,.95-.44,.2-1.1,.31-1.99,.31-.63,0-1.11-.1-1.43-.3-.32-.2-.48-.51-.48-.92s.13-.71,.38-.91c.25-.2,.63-.3,1.13-.3h3.33l-.17-2.55h-3.17c-1.51,0-2.64,.31-3.39,.93-.75,.62-1.13,1.56-1.13,2.83,0,1.33,.34,2.31,1.01,2.95,.68,.64,1.69,.96,3.04,.96,.59,0,1.17-.08,1.73-.23h0Zm16.99-.87c.95-.73,1.42-1.76,1.42-3.09,0-.87-.15-1.55-.44-2.05-.29-.5-.68-.87-1.15-1.11-.48-.24-1-.41-1.57-.51-.57-.09-1.14-.17-1.7-.24-.49-.06-.94-.11-1.37-.16-.42-.05-.77-.14-1.02-.26-.26-.12-.39-.3-.39-.55,0-.28,.19-.5,.56-.65,.38-.15,.9-.23,1.58-.23,.55,0,1.13,.08,1.73,.26,.6,.17,1.18,.41,1.73,.72l1.99-2.43c-.74-.52-1.58-.92-2.52-1.21-.94-.28-1.89-.43-2.86-.43-1.65,0-2.93,.35-3.83,1.05-.9,.7-1.36,1.69-1.36,2.97,0,.81,.13,1.44,.39,1.91,.26,.47,.61,.82,1.05,1.05,.44,.23,.93,.4,1.46,.5,.53,.1,1.07,.19,1.62,.26,.54,.07,1.05,.13,1.53,.18,.48,.05,.87,.14,1.17,.28,.3,.14,.45,.4,.45,.77,0,.31-.22,.55-.65,.73-.43,.17-1.04,.26-1.82,.26-.6,0-1.24-.11-1.9-.32-.67-.21-1.31-.51-1.92-.9l-2.06,2.58c.72,.55,1.6,.97,2.63,1.27,1.03,.31,2.11,.46,3.25,.46,1.73,0,3.06-.37,4.01-1.1h0Zm9.33,.98v-3.22h-.83c-.24,0-.42-.09-.54-.26-.12-.17-.18-.41-.18-.71v-12.23h-3.34v13.06c0,1.08,.25,1.91,.76,2.49,.5,.58,1.32,.87,2.45,.87h1.69Zm0-9.87v-2.86h-6.2v2.86h6.2Zm6.09-4.59v-3.34h-3.34v3.34h3.34Zm0,14.4v-12.67h-3.34v12.67h3.34Zm6.46,0v-12.67h-3.35v12.67h3.35Zm7.32,0v-7.69c0-1.64-.37-2.92-1.1-3.82-.73-.9-1.77-1.35-3.1-1.35-.84,0-1.52,.21-2.04,.62-.53,.41-.97,1.01-1.34,1.77l.26,2.81c0-.63,.17-1.11,.51-1.46,.34-.35,.82-.52,1.43-.52,.65,0,1.15,.17,1.51,.51,.35,.34,.53,.82,.53,1.45v7.68h3.35Zm11.99,3.7c.99-.96,1.48-2.32,1.48-4.08v-12.29h-3.34v12.54c0,.69-.23,1.22-.68,1.6-.46,.37-1.02,.56-1.7,.56-.43,0-.85-.09-1.25-.26s-.74-.41-1.03-.71l-2.25,2.06c.44,.64,1.06,1.14,1.85,1.5,.79,.35,1.7,.53,2.7,.53,1.81,0,3.22-.48,4.2-1.45h0Zm-2.88-4.09c.54-.38,.94-.91,1.19-1.61l-.17-2.89c0,.42-.07,.77-.22,1.06-.15,.29-.36,.52-.64,.67-.28,.15-.62,.23-1.02,.23-.63,0-1.11-.21-1.46-.62-.35-.42-.52-1-.52-1.76v-2.01c0-.77,.17-1.37,.52-1.8,.35-.43,.83-.64,1.46-.64,.4,0,.74,.08,1.02,.24,.28,.16,.49,.39,.64,.69,.15,.3,.22,.67,.22,1.1l.26-2.81c-.34-.74-.79-1.31-1.35-1.71-.56-.4-1.17-.6-1.85-.6-1.35,0-2.4,.48-3.14,1.45-.74,.96-1.12,2.32-1.12,4.08v2.03c0,1.74,.37,3.09,1.12,4.05,.74,.96,1.79,1.43,3.14,1.43,.74,0,1.38-.19,1.92-.57h0Z"/>
  <path class="cls-3" d="M529.75,550.68v-12.67h-3.35v12.67h3.35Zm7.32,0v-7.69c0-1.64-.37-2.92-1.1-3.82-.73-.9-1.77-1.35-3.1-1.35-.84,0-1.52,.21-2.05,.62-.53,.41-.97,1.01-1.34,1.77l.26,2.81c0-.63,.17-1.11,.51-1.46,.34-.35,.82-.52,1.43-.52,.65,0,1.15,.17,1.51,.51,.35,.34,.53,.82,.53,1.45v7.68h3.34Zm12.44-1.25c.95-.96,1.43-2.3,1.43-4.05v-2.1c0-1.73-.48-3.08-1.43-4.03-.95-.95-2.3-1.43-4.04-1.43s-3.09,.48-4.04,1.43c-.95,.95-1.43,2.29-1.43,4.03v2.06c0,1.75,.48,3.11,1.43,4.07,.95,.96,2.3,1.45,4.04,1.45s3.09-.48,4.04-1.43h0Zm-5.61-2.38c-.37-.39-.56-.95-.56-1.67v-2.1c0-.71,.19-1.26,.56-1.65,.37-.39,.89-.59,1.56-.59s1.2,.2,1.58,.59c.37,.39,.56,.94,.56,1.65v2.1c0,.72-.19,1.27-.56,1.67-.38,.39-.9,.59-1.58,.59s-1.19-.2-1.56-.59h0Zm13.68,3.63v-12.67h-3.59v12.67h3.59Zm5.49-11.87c-.32-.33-.69-.57-1.12-.74-.43-.17-.91-.25-1.43-.25-.67,0-1.28,.21-1.84,.63-.56,.42-1.01,1.01-1.36,1.76l.26,3.3c0-.77,.19-1.38,.55-1.81,.37-.43,.89-.65,1.57-.65,.31,0,.58,.04,.82,.12,.24,.08,.44,.2,.59,.37l1.95-2.72h0Zm6.81,11.93v-3.22h-.83c-.24,0-.41-.09-.54-.26-.12-.17-.18-.41-.18-.71v-12.23h-3.35v13.06c0,1.08,.25,1.91,.76,2.49,.51,.58,1.32,.87,2.45,.87h1.68Zm0-9.87v-2.86h-6.2v2.86h6.2Zm6.27,9.81v-17.75h-3.35v17.75h3.35Zm7.32,0v-7.69c0-1.64-.37-2.92-1.1-3.82-.73-.9-1.77-1.35-3.1-1.35-.84,0-1.52,.21-2.04,.62-.53,.41-.97,1.01-1.34,1.77l.26,2.81c0-.63,.17-1.11,.51-1.46,.34-.35,.82-.52,1.44-.52,.65,0,1.15,.17,1.51,.51,.35,.34,.53,.82,.53,1.45v7.68h3.34Zm6.46-14.4v-3.34h-3.35v3.34h3.35Zm0,14.4v-12.67h-3.35v12.67h3.35Zm6.46,0v-12.67h-3.34v12.67h3.34Zm7.32,0v-7.69c0-1.64-.37-2.92-1.1-3.82-.73-.9-1.77-1.35-3.1-1.35-.84,0-1.52,.21-2.04,.62-.52,.41-.97,1.01-1.34,1.77l.26,2.81c0-.63,.17-1.11,.51-1.46,.34-.35,.82-.52,1.43-.52,.65,0,1.15,.17,1.51,.51,.35,.34,.53,.82,.53,1.45v7.68h3.34Zm11.99,3.7c.99-.96,1.48-2.32,1.48-4.08v-12.29h-3.34v12.54c0,.69-.23,1.22-.68,1.6-.46,.37-1.02,.56-1.7,.56-.43,0-.85-.09-1.24-.26-.4-.17-.74-.41-1.03-.71l-2.25,2.06c.44,.64,1.06,1.14,1.85,1.5,.79,.35,1.7,.53,2.7,.53,1.82,0,3.22-.48,4.21-1.45h0Zm-2.88-4.09c.54-.38,.94-.91,1.19-1.61l-.17-2.89c0,.42-.07,.77-.22,1.06-.15,.29-.36,.52-.64,.67-.28,.15-.62,.23-1.02,.23-.63,0-1.11-.21-1.46-.62-.35-.42-.52-1-.52-1.76v-2.01c0-.77,.17-1.37,.52-1.8,.35-.43,.83-.64,1.46-.64,.4,0,.74,.08,1.02,.24,.28,.16,.49,.39,.64,.69,.15,.3,.22,.67,.22,1.1l.26-2.81c-.34-.74-.79-1.31-1.35-1.71-.56-.4-1.17-.6-1.85-.6-1.35,0-2.4,.48-3.14,1.45-.75,.96-1.12,2.32-1.12,4.08v2.03c0,1.74,.37,3.09,1.12,4.05,.74,.96,1.79,1.43,3.14,1.43,.74,0,1.38-.19,1.92-.57h0Z"/>
  <path class="cls-3" d="M291.22,549.45c1.18-.94,1.77-2.26,1.77-3.97v-.02c0-1-.17-1.81-.5-2.44-.33-.63-.78-1.12-1.34-1.48-.56-.36-1.18-.63-1.85-.82-.68-.19-1.36-.35-2.04-.48-.62-.12-1.2-.25-1.73-.4-.54-.14-.97-.36-1.31-.65-.33-.29-.5-.72-.5-1.29h0c0-.62,.28-1.1,.84-1.43,.56-.34,1.36-.51,2.38-.51,.68,0,1.4,.13,2.14,.38,.75,.26,1.46,.62,2.14,1.11l1.42-2.83c-.85-.59-1.78-1.05-2.77-1.37-.99-.32-1.97-.48-2.93-.48-2.08,0-3.7,.47-4.83,1.42-1.14,.95-1.71,2.29-1.71,4.02h0c0,1.09,.18,1.95,.54,2.59,.36,.64,.84,1.14,1.43,1.48,.59,.35,1.24,.6,1.95,.76,.71,.16,1.41,.29,2.1,.4,.58,.09,1.11,.2,1.61,.33,.49,.13,.89,.33,1.19,.6,.3,.27,.45,.67,.45,1.18h0c0,.69-.3,1.21-.9,1.58-.6,.37-1.45,.55-2.54,.55-.94,0-1.86-.15-2.76-.46-.89-.3-1.68-.74-2.37-1.3l-1.55,2.76c.57,.46,1.21,.86,1.92,1.19,.71,.33,1.47,.58,2.28,.75,.81,.17,1.64,.26,2.48,.26,2.15,0,3.81-.47,4.99-1.41h0Zm14.76,6.38v-17.82h-3.34v17.82h3.34Zm-4.36-5.54c.54-.38,.94-.91,1.19-1.61l-.17-2.89c0,.42-.07,.77-.22,1.06-.15,.29-.36,.52-.64,.67-.28,.15-.62,.23-1.02,.23-.63,0-1.11-.21-1.46-.62-.35-.42-.52-1-.52-1.76v-2.01c0-.77,.17-1.37,.52-1.8,.35-.43,.83-.64,1.46-.64,.4,0,.74,.08,1.02,.24,.28,.16,.5,.39,.64,.69,.15,.3,.22,.67,.22,1.1l.26-2.81c-.34-.74-.79-1.31-1.35-1.71-.56-.4-1.17-.6-1.85-.6-1.35,0-2.4,.48-3.14,1.45-.74,.96-1.12,2.32-1.12,4.08v2.03c0,1.74,.37,3.09,1.12,4.05,.74,.96,1.79,1.43,3.14,1.43,.74,0,1.38-.19,1.92-.57h0Zm18.27,.38v-12.67h-3.33v12.67h3.33Zm-10.61-12.67v7.83c0,1.59,.37,2.83,1.11,3.71,.74,.88,1.79,1.32,3.15,1.32,.85,0,1.54-.25,2.07-.76,.53-.5,.91-1.07,1.12-1.7l-.17-2.77c0,.64-.17,1.14-.51,1.48-.34,.35-.82,.52-1.45,.52s-1.11-.17-1.46-.51c-.35-.34-.52-.81-.52-1.42v-7.7h-3.34Zm23.91,12.67v-8.14c0-1.5-.46-2.66-1.37-3.48-.91-.82-2.2-1.23-3.87-1.23-1.01,0-1.93,.16-2.76,.48-.83,.32-1.5,.77-2,1.35l2.08,2.04c.36-.28,.77-.5,1.23-.65,.46-.15,.93-.23,1.4-.23,.72,0,1.27,.16,1.66,.48,.39,.32,.59,.77,.59,1.35v8.03h3.04Zm-4.84-.04c.56-.15,1.03-.38,1.41-.7,.38-.31,.6-.71,.65-1.19l-.26-1.84c0,.43-.22,.75-.66,.95-.44,.2-1.1,.31-1.99,.31-.64,0-1.11-.1-1.43-.3-.32-.2-.48-.51-.48-.92s.13-.71,.38-.91c.25-.2,.63-.3,1.13-.3h3.33l-.17-2.55h-3.17c-1.51,0-2.64,.31-3.39,.93-.75,.62-1.13,1.56-1.13,2.83,0,1.33,.34,2.31,1.01,2.95,.68,.64,1.69,.96,3.04,.96,.59,0,1.17-.08,1.73-.23h0Zm11.72,.04v-12.67h-3.59v12.67h3.59Zm5.49-11.87c-.32-.33-.69-.57-1.12-.74-.43-.17-.9-.25-1.43-.25-.67,0-1.28,.21-1.84,.63-.56,.42-1.01,1.01-1.36,1.76l.26,3.3c0-.77,.18-1.38,.55-1.81s.89-.65,1.57-.65c.31,0,.58,.04,.82,.12,.24,.08,.44,.2,.59,.37l1.95-2.72h0Zm9.27,11.55c.82-.33,1.56-.8,2.22-1.4l-2.18-1.94c-.36,.29-.76,.52-1.2,.68-.44,.16-.88,.24-1.33,.24-.87,0-1.55-.24-2.03-.71-.48-.47-.73-1.14-.73-2v-1.61c0-.88,.22-1.56,.66-2.04,.44-.48,1.07-.72,1.87-.72,.63,0,1.12,.2,1.49,.6,.37,.4,.59,.97,.68,1.69l.04,.29h-5.62v2.26h8.67v-.83c0-2.24-.46-3.97-1.37-5.21-.92-1.23-2.21-1.85-3.89-1.85-1.77,0-3.15,.52-4.12,1.55-.97,1.03-1.46,2.5-1.46,4.38v1.43c0,1.81,.51,3.2,1.52,4.19,1.01,.99,2.44,1.48,4.28,1.48,.84,0,1.67-.17,2.49-.49h0Z"/>
  <path class="cls-3" d="M665.94,302.2v-17.75h-3.35v17.75h3.35Zm8.54,0v-3.22h-10.4v3.22h10.4Zm11.34-1.25c.95-.96,1.43-2.3,1.43-4.05v-2.1c0-1.73-.48-3.08-1.43-4.03-.95-.95-2.3-1.43-4.04-1.43s-3.09,.48-4.04,1.43c-.95,.95-1.43,2.29-1.43,4.03v2.06c0,1.75,.48,3.11,1.43,4.07,.95,.96,2.3,1.45,4.04,1.45s3.09-.48,4.04-1.43h0Zm-5.61-2.38c-.37-.39-.55-.95-.55-1.67v-2.1c0-.71,.18-1.26,.55-1.65,.37-.39,.89-.59,1.56-.59s1.2,.2,1.57,.59c.37,.39,.56,.94,.56,1.65v2.1c0,.72-.19,1.27-.56,1.67-.37,.4-.9,.59-1.57,.59s-1.19-.2-1.56-.59h0Zm18.27,3.3c.84-.35,1.51-.84,2.01-1.47l-2.16-2.22c-.3,.32-.66,.56-1.08,.73-.42,.17-.86,.26-1.31,.26-.85,0-1.5-.23-1.97-.69-.46-.46-.7-1.11-.7-1.96v-1.35c0-.82,.23-1.46,.7-1.91,.46-.45,1.12-.68,1.97-.68,.45,0,.89,.08,1.31,.24,.42,.16,.78,.38,1.08,.67l2.16-2.1c-.5-.65-1.17-1.15-2.01-1.5-.84-.35-1.78-.53-2.83-.53-1.81,0-3.22,.51-4.22,1.52s-1.5,2.44-1.5,4.29v1.35c0,1.86,.5,3.31,1.5,4.33,1,1.03,2.41,1.54,4.22,1.54,1.04,0,1.98-.17,2.83-.52h0Zm14.28,.33v-8.14c0-1.5-.46-2.66-1.37-3.48-.91-.82-2.2-1.23-3.87-1.23-1.01,0-1.93,.16-2.76,.48-.83,.32-1.5,.77-2,1.35l2.08,2.04c.36-.29,.77-.5,1.23-.65,.46-.15,.93-.23,1.4-.23,.72,0,1.27,.16,1.66,.48,.39,.32,.58,.77,.58,1.35v8.03h3.04Zm-4.84-.04c.56-.15,1.03-.38,1.41-.7,.38-.31,.6-.71,.65-1.19l-.26-1.84c0,.43-.22,.75-.66,.95-.44,.2-1.1,.3-1.99,.3-.63,0-1.11-.1-1.43-.3-.32-.2-.48-.51-.48-.92s.13-.71,.38-.91c.25-.2,.63-.3,1.14-.3h3.33l-.17-2.55h-3.17c-1.5,0-2.63,.31-3.39,.93-.75,.62-1.13,1.57-1.13,2.83,0,1.33,.34,2.31,1.01,2.95,.68,.64,1.69,.96,3.04,.96,.59,0,1.17-.07,1.73-.22h0Zm8.14-17.71v14.39c0,1.07,.28,1.89,.84,2.48,.56,.59,1.35,.88,2.37,.88h1.71v-3.22h-.56c-.33,0-.58-.09-.75-.26-.18-.17-.26-.41-.26-.71v-13.56h-3.34Z"/>
  <path class="cls-3" d="M576.39,440.22c1.13-1.15,1.7-2.78,1.7-4.88v-11.33h-3.34v11.41c0,1.02-.28,1.81-.82,2.37-.55,.56-1.32,.84-2.33,.84s-1.76-.28-2.31-.84c-.54-.56-.82-1.35-.82-2.37v-11.41h-3.34v11.33c0,2.1,.56,3.73,1.69,4.88,1.13,1.15,2.72,1.73,4.78,1.73s3.67-.58,4.8-1.73h0Zm11.1,1.54v-16.3h-3.34v16.3h3.34Zm4.83-14.53v-3.22h-13.01v3.22h13.01Zm10.51,13.99c.87-.48,1.59-1.18,2.17-2.09,.57-.92,.97-2.02,1.2-3.31h-3.47c-.19,.89-.53,1.57-1.04,2.06-.5,.48-1.12,.73-1.85,.73-.94,0-1.66-.29-2.18-.86-.52-.57-.78-1.38-.78-2.42v-4.87c0-1.04,.26-1.85,.78-2.42,.52-.57,1.24-.86,2.18-.86,.48,0,.91,.11,1.3,.33,.39,.22,.72,.54,.99,.95,.27,.41,.47,.91,.6,1.51h3.47c-.22-1.3-.62-2.41-1.19-3.32-.57-.91-1.3-1.61-2.17-2.09-.88-.48-1.87-.72-3-.72-1.36,0-2.52,.26-3.47,.78-.96,.52-1.69,1.27-2.19,2.26-.51,.99-.76,2.18-.76,3.59v4.87c0,1.4,.25,2.59,.76,3.58,.5,.99,1.23,1.74,2.19,2.26,.96,.52,2.11,.78,3.47,.78,1.12,0,2.12-.24,2.99-.72h0Zm18.02-.62c.9-.89,1.34-2.13,1.34-3.7v-8.07c0-1.58-.45-2.81-1.34-3.71-.89-.89-2.21-1.34-3.97-1.34s-3.07,.45-3.97,1.34c-.9,.89-1.34,2.13-1.34,3.7v8.07c0,1.55,.44,2.77,1.33,3.68,.89,.91,2.21,1.36,3.98,1.36s3.07-.45,3.97-1.34h0Zm-5.47-2.59c-.31-.48-.46-1.13-.46-1.96v-6.36c0-.84,.15-1.49,.46-1.97,.31-.47,.81-.71,1.5-.71s1.2,.24,1.51,.71c.3,.47,.46,1.13,.46,1.97v6.36c0,.83-.15,1.48-.46,1.96-.3,.48-.81,.71-1.51,.71s-1.19-.24-1.5-.71h0Zm18.65-16.1l-7.94,23.22h3.17l7.93-23.22h-3.17Zm9.87,19.85v-17.75h-3.35v17.75h3.35Zm8.54,0v-3.22h-10.4v3.22h10.4Zm11.34-1.25c.95-.96,1.43-2.3,1.43-4.05v-2.1c0-1.73-.48-3.08-1.43-4.03-.95-.95-2.3-1.43-4.04-1.43s-3.09,.48-4.04,1.43c-.95,.95-1.43,2.3-1.43,4.03v2.06c0,1.75,.48,3.11,1.43,4.07,.95,.96,2.3,1.45,4.04,1.45s3.09-.48,4.04-1.43h0Zm-5.61-2.38c-.37-.39-.56-.95-.56-1.67v-2.1c0-.71,.18-1.26,.56-1.65,.37-.39,.89-.59,1.56-.59s1.2,.2,1.57,.59c.38,.39,.56,.94,.56,1.65v2.1c0,.72-.19,1.27-.56,1.67-.37,.39-.9,.59-1.57,.59s-1.19-.2-1.56-.59h0Zm13.43,3.63v-12.67h-3.35v12.67h3.35Zm7.32,0v-7.69c0-1.64-.37-2.92-1.1-3.82-.73-.9-1.77-1.35-3.1-1.35-.84,0-1.52,.21-2.04,.62-.53,.41-.97,1-1.34,1.77l.26,2.81c0-.63,.17-1.11,.51-1.46,.34-.35,.82-.52,1.43-.52,.65,0,1.15,.17,1.51,.51,.35,.34,.53,.82,.53,1.45v7.68h3.34Zm13.48,0v-17.75h-3.35v17.75h3.35Zm-4.36-.38c.54-.38,.94-.91,1.19-1.61l-.17-2.89c0,.42-.07,.77-.22,1.06-.15,.29-.36,.52-.64,.67-.28,.15-.62,.23-1.02,.23-.63,0-1.11-.21-1.46-.62-.35-.42-.52-1-.52-1.76v-2.01c0-.77,.17-1.37,.52-1.8,.34-.43,.83-.64,1.46-.64,.4,0,.74,.08,1.02,.24,.28,.16,.49,.39,.64,.69,.15,.3,.22,.67,.22,1.1l.26-2.81c-.34-.74-.79-1.31-1.35-1.71-.56-.4-1.17-.6-1.85-.6-1.35,0-2.4,.48-3.14,1.45s-1.12,2.33-1.12,4.08v2.03c0,1.74,.37,3.09,1.12,4.05,.74,.96,1.79,1.43,3.14,1.43,.74,0,1.38-.19,1.92-.57h0Zm16.8-.87c.95-.96,1.43-2.3,1.43-4.05v-2.1c0-1.73-.48-3.08-1.43-4.03-.95-.95-2.3-1.43-4.04-1.43s-3.09,.48-4.04,1.43c-.95,.95-1.43,2.3-1.43,4.03v2.06c0,1.75,.48,3.11,1.43,4.07,.95,.96,2.3,1.45,4.04,1.45s3.09-.48,4.04-1.43h0Zm-5.61-2.38c-.37-.39-.56-.95-.56-1.67v-2.1c0-.71,.18-1.26,.56-1.65,.37-.39,.89-.59,1.56-.59s1.2,.2,1.57,.59c.37,.39,.56,.94,.56,1.65v2.1c0,.72-.19,1.27-.56,1.67-.38,.39-.9,.59-1.57,.59s-1.19-.2-1.56-.59h0Zm13.43,3.63v-12.67h-3.34v12.67h3.34Zm7.32,0v-7.69c0-1.64-.37-2.92-1.1-3.82-.73-.9-1.77-1.35-3.1-1.35-.84,0-1.52,.21-2.04,.62-.53,.41-.97,1-1.34,1.77l.26,2.81c0-.63,.17-1.11,.51-1.46,.34-.35,.82-.52,1.43-.52,.65,0,1.15,.17,1.51,.51,.35,.34,.53,.82,.53,1.45v7.68h3.35Z"/>
  <path class="cls-3" d="M173.12,532.93v3.22h7.08l-7.3,11.52v3h11.52v-3.22h-7.54l7.3-11.52v-3h-11.06Zm23.01,16.5c.95-.96,1.43-2.3,1.43-4.05v-2.1c0-1.73-.48-3.08-1.43-4.03-.95-.95-2.3-1.43-4.04-1.43s-3.09,.48-4.04,1.43c-.95,.95-1.43,2.29-1.43,4.03v2.06c0,1.75,.48,3.11,1.43,4.07,.95,.96,2.3,1.45,4.04,1.45s3.09-.48,4.04-1.43h0Zm-5.61-2.38c-.37-.39-.56-.95-.56-1.67v-2.1c0-.71,.19-1.26,.56-1.65,.37-.39,.89-.59,1.56-.59s1.2,.2,1.58,.59c.37,.39,.56,.94,.56,1.65v2.1c0,.72-.19,1.27-.56,1.67-.38,.39-.9,.59-1.58,.59s-1.19-.2-1.56-.59h0Zm13.43,3.63v-12.67h-3.34v12.67h3.34Zm7.32,0v-7.69c0-1.64-.37-2.92-1.1-3.82-.73-.9-1.77-1.35-3.1-1.35-.84,0-1.52,.21-2.04,.62-.52,.41-.97,1.01-1.34,1.77l.26,2.81c0-.63,.17-1.11,.51-1.46,.34-.35,.82-.52,1.43-.52,.65,0,1.15,.17,1.51,.51,.35,.34,.53,.82,.53,1.45v7.68h3.35Zm11.22-.31c.82-.33,1.56-.8,2.22-1.4l-2.18-1.94c-.36,.29-.76,.52-1.2,.68-.44,.16-.88,.24-1.33,.24-.87,0-1.55-.24-2.03-.71-.48-.47-.73-1.14-.73-2v-1.61c0-.88,.22-1.56,.67-2.04,.44-.48,1.07-.72,1.87-.72,.63,0,1.12,.2,1.49,.6,.37,.4,.59,.97,.68,1.69l.04,.29h-5.62v2.26h8.67v-.83c0-2.24-.46-3.97-1.37-5.21-.92-1.23-2.21-1.85-3.89-1.85-1.77,0-3.15,.52-4.12,1.55-.97,1.03-1.46,2.5-1.46,4.38v1.43c0,1.81,.51,3.2,1.52,4.19,1.01,.99,2.44,1.48,4.28,1.48,.84,0,1.67-.17,2.49-.49h0Z"/>
  <path class="cls-3" d="M153.86,563.9c-.74-1.21-1.64-2.33-2.72-3.31-3.06-2.79-6.6-4.13-10.18-4.16-3.72-.03-7.46,1.35-10.73,3.95-1.42,1.13-2.59,2.44-3.5,3.88-2.32,3.64-3.02,8.13-2.27,12.79,.74,4.6,2.9,9.37,6.33,13.67,2.49,3.13,5.65,6,9.41,8.4,.35,.22,.77,.2,1.09-.03,2.55-1.55,4.82-3.46,6.77-5.6h0c3.97-4.37,6.66-9.7,7.74-14.94,1.1-5.31,.56-10.54-1.93-14.65h0Zm-5.41,8.55c0,4.39-3.56,7.95-7.95,7.95s-7.95-3.56-7.95-7.95,3.56-7.95,7.95-7.95,7.95,3.56,7.95,7.95h0Z"/>
  <path class="cls-3" d="M616.21,226.41l19.13,19.94,19.13-19.94c2.25-2.42,3.52-5.7,3.52-9.12v-.58c0-6.8-5.14-12.32-11.48-12.32-3.48,0-6.78,1.7-8.96,4.62l-2.22,2.98-2.22-2.98c-2.18-2.92-5.47-4.62-8.96-4.62-6.34,0-11.48,5.52-11.48,12.32v.58c0,3.42,1.27,6.7,3.52,9.12h0Z"/>
  <path class="cls-3" d="M287.91,238l-10.11-1.51-.57,3.15s-.13,4.92,4.29,5.58c4.42,.67,5.87-4.07,5.87-4.07l.53-3.15h0Z"/>
  <path class="cls-3" d="M289.24,210.94c-4.4-.75-9.3,4.03-10.3,8.94-.41,2.02-.35,4.09-.23,6.12,.06,.97,.16,1.96,.18,2.93,.02,1.23-.09,2.44-.2,3.65-.15,1.69,.44,1.84,1.98,1.79l5.59,.84c.58,.14,1.75,.55,2.15-.16,.35-.63,.05-1.58,.23-2.27,.22-.9,.5-1.83,.84-2.71,.74-1.96,2.56-3.67,3.66-5.46,1.36-2.22,1.95-4.23,1.96-6.79,0-3.4-2.34-6.29-5.88-6.9h0Z"/>
  <path class="cls-3" d="M295.86,230.87l9.95,3.93s-2.05,8.04-8.13,5.7c-6.07-2.34-1.82-9.62-1.82-9.62h0Z"/>
  <path class="cls-3" d="M310.05,206.18c4.24,1.58,5.96,8.27,4.16,13.08-.74,1.98-1.91,3.75-3.12,5.48-.58,.82-1.2,1.63-1.75,2.48-.67,1.06-1.23,2.18-1.8,3.3-.79,1.55-1.39,1.38-2.71,.56l-5.35-2.1c-.58-.17-1.82-.42-1.79-1.23,.03-.73,.8-1.42,1.03-2.1,.29-.91,.55-1.86,.73-2.8,.42-2.09-.26-4.52-.25-6.65,0-2.64,.62-4.74,1.99-6.98,1.84-3.01,5.42-4.3,8.85-3.04h0Z"/>
  <g class="cls-4">
    <path class="cls-3" d="M463.16,208.14v-4.26h-10.24v4.26h-5.97v37.91h22.19v-37.91h-5.97Zm.77,18.93l-11.15,10.55,5.27-9.09-5.91-1.96,11.79-10.83-6,9.75,6,1.59h0Z"/>
    <polygon class="cls-2" points="0 0 0 28.35 28.35 28.35 28.35 0 0 0 0 0"/>
    <polygon class="cls-2" points="0 765.35 0 793.7 28.35 793.7 28.35 765.35 0 765.35 0 765.35"/>
    <polygon class="cls-2" points="765.35 0 765.35 28.35 793.7 28.35 793.7 0 765.35 0 765.35 0"/>
  </g>
  <polygon class="cls-2" points="765.35 765.35 765.35 793.7 793.7 793.7 793.7 765.35 765.35 765.35 765.35 765.35"/>
  <path class="cls-2" d="M461.96,5.86l-1.3,7.56,7.38,1.27,1.3-7.56-7.38-1.27h0Zm66.9,17.2l-2.59,7.22,7.05,2.53,2.59-7.22-7.05-2.53h0Zm63.14,28.75l-3.86,6.62,6.47,3.77,3.86-6.62-6.47-3.77h0Zm56.73,39.04l-4.92,5.88,5.75,4.8,4.92-5.88-5.75-4.8h0Zm49.42,48.49l-5.88,4.92,4.8,5.75,5.88-4.92-4.8-5.75h0Zm40.05,56.02l-6.62,3.86,3.77,6.47,6.62-3.86-3.77-6.47h0Zm29.96,62.57l-7.22,2.59,2.53,7.05,7.22-2.59-2.53-7.05h0Zm18.44,66.57l-7.56,1.3,1.27,7.38,7.56-1.3-1.27-7.38h0Zm1.26,137.39l-7.56-1.3-1.27,7.38,7.56,1.3,1.27-7.38h0Zm-17.19,66.9l-7.22-2.59-2.53,7.05,7.22,2.59,2.53-7.05h0Zm-28.74,63.14l-6.62-3.86-3.77,6.47,6.62,3.86,3.77-6.47h0Zm-39.04,56.74l-5.88-4.92-4.8,5.75,5.88,4.92,4.8-5.75h0Zm-48.48,49.43l-4.92-5.88-5.75,4.8,4.92,5.88,5.75-4.8h0Zm-56.02,40.06l-3.86-6.62-6.47,3.77,3.86,6.62,6.47-3.77h0Zm-62.57,29.97l-2.59-7.22-7.05,2.53,2.59,7.22,7.05-2.53h0Zm-66.57,18.45l-1.3-7.56-7.38,1.27,1.3,7.56,7.38-1.27h0Zm-137.38,1.28l1.3-7.56-7.38-1.27-1.3,7.56,7.38,1.27h0Zm-66.91-17.18l2.59-7.22-7.05-2.53-2.59,7.22,7.05,2.53h0Zm-63.15-28.73l3.86-6.62-6.47-3.77-3.86,6.62,6.47,3.77h0Zm-56.74-39.03l4.92-5.88-5.75-4.8-4.91,5.88,5.75,4.8h0Zm-49.43-48.48l5.88-4.92-4.8-5.75-5.88,4.92,4.8,5.75h0Zm-40.07-56.01l6.62-3.86-3.77-6.47-6.62,3.86,3.77,6.47h0Zm-29.98-62.56l7.22-2.59-2.53-7.05-7.22,2.59,2.53,7.05h0ZM7.12,469.31l7.56-1.3-1.27-7.38-7.56,1.3,1.27,7.38h0Zm-1.3-137.38l7.56,1.3,1.27-7.38-7.56-1.3-1.27,7.38h0Zm17.17-66.91l7.22,2.59,2.53-7.05-7.22-2.59-2.53,7.05h0Zm28.72-63.15l6.62,3.86,3.77-6.47-6.62-3.86-3.77,6.47h0Zm39.02-56.75l5.88,4.92,4.8-5.75-5.88-4.92-4.8,5.75h0Zm48.47-49.44l4.92,5.88,5.75-4.8-4.92-5.88-5.75,4.8h0Zm56.01-40.08l3.86,6.62,6.47-3.77-3.86-6.62-6.47,3.77h0Zm62.56-29.99l2.59,7.22,7.05-2.53-2.59-7.22-7.05,2.53h0ZM324.33,7.13l1.3,7.56,7.38-1.27-1.3-7.56-7.38,1.27h0Z"/>
  <path class="cls-2" d="M674.24,113.84l-19.4,19.63,5.33,5.26,19.4-19.63-5.33-5.26h0Zm5.61,560.4l-19.63-19.4-5.26,5.33,19.64,19.4,5.26-5.33h0Zm-560.4,5.6l19.4-19.63-5.33-5.26-19.4,19.63,5.33,5.26h0Zm-5.59-560.4l19.63,19.4,5.26-5.33-19.63-19.4-5.26,5.33h0Z"/>
  <polygon class="cls-2" points="391.45 28.18 391.45 7.64 391.02 8.11 400.87 28.18 407.04 28.18 407.04 1.6 402.25 1.6 402.25 22.45 402.68 21.97 392.79 1.6 386.66 1.6 386.66 28.18 391.45 28.18 391.45 28.18"/>
  <polygon class="cls-2" points="1.6 407.37 1.6 412.52 28.19 406.4 28.19 401.68 9.61 396.74 28.19 392.02 28.19 387.3 1.6 381.18 1.6 386.33 19.34 389.75 1.6 394.84 1.6 398.86 19.34 403.95 1.6 407.37 1.6 407.37"/>
  <path class="cls-2" d="M764.77,393.59h26.59v-5.01h-26.59v5.01h0Zm0,12.8h4.83v-16h-4.83v16h0Zm10.79-2.01h4.83v-13.99h-4.83v13.99h0Zm10.97,2.01h4.83v-16h-4.83v16h0Z"/>
  <path class="cls-2" d="M404.08,790.26c1.77-1.41,2.65-3.39,2.65-5.95v-.04c0-1.5-.25-2.72-.75-3.66-.5-.94-1.17-1.68-2.01-2.21-.84-.54-1.77-.95-2.78-1.24-1.01-.29-2.03-.53-3.05-.72-.93-.18-1.79-.38-2.6-.6-.81-.21-1.46-.54-1.96-.98-.5-.44-.75-1.09-.75-1.94v-.02c0-.91,.42-1.63,1.26-2.13,.84-.51,2.03-.76,3.57-.76,1.03,0,2.1,.19,3.21,.58,1.12,.38,2.19,.94,3.21,1.65l2.12-4.24c-1.28-.89-2.67-1.58-4.15-2.06-1.49-.48-2.95-.72-4.39-.72-3.12,0-5.54,.71-7.24,2.13-1.71,1.42-2.56,3.43-2.56,6.03v.02c0,1.61,.27,2.9,.81,3.86,.54,.96,1.26,1.7,2.15,2.22,.89,.52,1.86,.9,2.93,1.13,1.06,.24,2.11,.44,3.15,.59,.87,.14,1.67,.3,2.4,.49,.74,.19,1.33,.5,1.78,.91,.45,.41,.68,1,.68,1.77v.02c0,1.01-.45,1.79-1.35,2.35-.9,.56-2.17,.83-3.8,.83-1.41,0-2.79-.23-4.13-.69-1.34-.46-2.52-1.11-3.55-1.95l-2.32,4.13c.85,.7,1.81,1.29,2.87,1.78,1.06,.49,2.2,.87,3.41,1.12,1.21,.26,2.45,.38,3.72,.38,3.22,0,5.71-.7,7.48-2.11h0Z"/>
</svg>