<?xml version="1.0" encoding="utf-8"?>
<!-- Generator: Adobe Illustrator 26.5.0, SVG Export Plug-In . SVG Version: 6.00 Build 0)  -->
<svg version="1.1" id="Layer_1" xmlns="http://www.w3.org/2000/svg" xmlns:xlink="http://www.w3.org/1999/xlink" x="0px" y="0px"
	 viewBox="0 0 793.7 793.7" style="enable-background:new 0 0 793.7 793.7;" xml:space="preserve">
<style type="text/css">
	.st0{fill:#878787;}
	.st1{fill:#00FFFF;}
	.st2{clip-path:url(#SVGID_00000003815001439491916420000015298446122258475187_);}
	.st3{fill:#00FF00;}
</style>
<path class="st0" d="M492.7,171.3c1.8-1.6,2.8-3.7,2.8-6.4c0-1.7-0.2-3.1-0.8-4.1s-1.2-1.8-2-2.4s-1.8-1-2.8-1.3s-2-0.5-3-0.7
	c-0.9-0.2-1.8-0.4-2.6-0.6c-0.8-0.2-1.4-0.5-1.9-0.8s-0.7-0.9-0.7-1.5c0-0.7,0.3-1.2,0.9-1.6c0.6-0.4,1.4-0.6,2.4-0.6
	s1.9,0.2,2.6,0.8c0.8,0.5,1.4,1.2,1.9,2.1l5.6-2.8c-0.6-2.1-1.8-3.7-3.5-4.8s-3.9-1.7-6.5-1.7c-3,0-5.4,0.8-7.2,2.3
	c-1.8,1.5-2.6,3.6-2.6,6.3c0,1.5,0.2,2.8,0.7,3.8s1.1,1.7,1.9,2.3s1.6,1,2.6,1.3c0.9,0.3,1.9,0.6,2.8,0.9c1,0.2,2,0.4,2.9,0.6
	c0.9,0.2,1.6,0.5,2.2,0.9c0.5,0.4,0.8,0.9,0.8,1.7c0,0.7-0.3,1.3-1,1.7s-1.5,0.6-2.6,0.6c-1.2,0-2.3-0.3-3.3-0.9
	c-1-0.6-1.7-1.4-2.3-2.4l-5.6,2.9c0.6,2.1,1.8,3.8,3.7,5c1.9,1.2,4.3,1.8,7.1,1.8C488.3,173.7,490.8,172.9,492.7,171.3L492.7,171.3
	L492.7,171.3z"/>
<path class="st0" d="M669.4,617.6v-7.3c0-1.8-0.4-3.1-1.1-4.1s-1.8-1.5-3.2-1.5c-0.8,0-1.5,0.2-2.1,0.7c-0.6,0.4-1.2,1.1-1.6,1.9
	l0.6,2.9c0-0.7,0.2-1.3,0.5-1.6c0.3-0.4,0.8-0.6,1.5-0.6s1.2,0.2,1.5,0.6c0.3,0.4,0.5,1,0.5,1.7v7.3L669.4,617.6L669.4,617.6z
	 M654.6,617.6v-12.7h-3.3v12.7H654.6z M662,617.6v-7.3c0-1.8-0.4-3.1-1.1-4.1s-1.8-1.5-3.2-1.5c-0.8,0-1.4,0.2-2,0.6s-1,1-1.4,1.8
	l0.3,2.8c0-0.6,0.2-1.1,0.5-1.5c0.3-0.3,0.8-0.5,1.4-0.5c0.7,0,1.2,0.2,1.6,0.6c0.4,0.4,0.5,1,0.5,1.7v7.3L662,617.6L662,617.6z"/>
<path class="st0" d="M515.3,617.6v-7.3c0-1.8-0.4-3.1-1.1-4.1c-0.7-1-1.8-1.5-3.2-1.5c-0.8,0-1.5,0.2-2.1,0.7
	c-0.6,0.4-1.2,1.1-1.6,1.9l0.6,2.9c0-0.7,0.2-1.3,0.5-1.6c0.3-0.4,0.8-0.6,1.5-0.6s1.1,0.2,1.5,0.6c0.4,0.4,0.5,1,0.5,1.7v7.3
	L515.3,617.6L515.3,617.6z M500.5,617.6v-12.7h-3.4v12.7H500.5z M507.9,617.6v-7.3c0-1.8-0.4-3.1-1.1-4.1s-1.8-1.5-3.1-1.5
	c-0.8,0-1.4,0.2-2,0.6s-1,1-1.4,1.8l0.3,2.8c0-0.6,0.2-1.1,0.5-1.5c0.3-0.3,0.8-0.5,1.4-0.5c0.7,0,1.2,0.2,1.6,0.6
	c0.4,0.4,0.5,1,0.5,1.7v7.3L507.9,617.6L507.9,617.6z"/>
<path class="st1" d="M408.6,676.8v-11.2c0-1.8-0.4-3.2-1.2-4.2c-0.8-1-1.9-1.5-3.3-1.5c-0.9,0-1.7,0.3-2.5,0.8s-1.4,1.3-1.8,2.4
	l0.5,3c0-0.7,0.2-1.3,0.5-1.7c0.4-0.4,0.9-0.6,1.5-0.6s1.1,0.2,1.5,0.6c0.3,0.4,0.5,1,0.5,1.7v10.8L408.6,676.8L408.6,676.8z
	 M392.2,676.8v-16.7H388v16.7H392.2z M400.4,676.8v-11.4c0-1.8-0.4-3.2-1.2-4.1c-0.8-1-1.9-1.5-3.3-1.5c-0.9,0-1.7,0.3-2.4,0.8
	s-1.2,1.3-1.7,2.3l0.3,2.9c0-0.7,0.2-1.2,0.5-1.6s0.8-0.5,1.4-0.5c0.7,0,1.2,0.2,1.5,0.6c0.4,0.4,0.5,1,0.5,1.7v10.8H400.4
	L400.4,676.8z"/>
<path class="st0" d="M566.8,604.9h-3.5l-5.9,8.1l0.5,3.7L566.8,604.9L566.8,604.9L566.8,604.9z M559.1,617.6v-17.8h-3.3v17.8H559.1z
	 M567.4,617.6l-4.3-8.2l-2.8,1.7l3.2,6.5H567.4L567.4,617.6z M587.1,617.6v-7.3c0-1.8-0.4-3.1-1.1-4.1s-1.8-1.5-3.2-1.5
	c-0.8,0-1.5,0.2-2.1,0.7c-0.6,0.4-1.2,1.1-1.6,1.9l0.6,2.9c0-0.7,0.2-1.3,0.5-1.6c0.3-0.4,0.8-0.6,1.5-0.6s1.2,0.2,1.5,0.6
	c0.3,0.4,0.5,1,0.5,1.7v7.3L587.1,617.6L587.1,617.6z M572.4,617.6v-12.7H569v12.7H572.4z M579.8,617.6v-7.3c0-1.8-0.4-3.1-1.1-4.1
	s-1.8-1.5-3.2-1.5c-0.8,0-1.4,0.2-2,0.6s-1,1-1.4,1.8l0.3,2.8c0-0.6,0.2-1.1,0.5-1.5c0.3-0.3,0.8-0.5,1.4-0.5c0.7,0,1.2,0.2,1.6,0.6
	c0.4,0.4,0.5,1,0.5,1.7v7.3L579.8,617.6L579.8,617.6z"/>
<path class="st0" d="M407.1,604.9h-3.5l-5.9,8.1l0.5,3.7L407.1,604.9L407.1,604.9L407.1,604.9z M399.5,617.6v-17.8h-3.3v17.8H399.5z
	 M407.8,617.6l-4.3-8.2l-2.8,1.7l3.2,6.5H407.8L407.8,617.6z M427.5,617.6v-7.3c0-1.8-0.4-3.1-1.1-4.1s-1.8-1.5-3.2-1.5
	c-0.8,0-1.5,0.2-2.1,0.7s-1.2,1.1-1.6,1.9l0.6,2.9c0-0.7,0.2-1.3,0.5-1.6c0.3-0.4,0.8-0.6,1.5-0.6s1.1,0.2,1.5,0.6
	c0.4,0.4,0.5,1,0.5,1.7v7.3L427.5,617.6L427.5,617.6z M412.7,617.6v-12.7h-3.4v12.7H412.7z M420.1,617.6v-7.3c0-1.8-0.4-3.1-1.1-4.1
	s-1.8-1.5-3.1-1.5c-0.8,0-1.4,0.2-2,0.6s-1,1-1.4,1.8l0.3,2.8c0-0.6,0.2-1.1,0.5-1.5c0.3-0.3,0.8-0.5,1.4-0.5c0.7,0,1.2,0.2,1.6,0.6
	c0.4,0.4,0.5,1,0.5,1.7v7.3L420.1,617.6L420.1,617.6z"/>
<path class="st0" d="M381.7,550.4c0.8-0.3,1.6-0.8,2.2-1.4l-2.2-1.9c-0.4,0.3-0.8,0.5-1.2,0.7s-0.9,0.2-1.3,0.2
	c-0.9,0-1.5-0.2-2-0.7s-0.7-1.1-0.7-2v-1.6c0-0.9,0.2-1.6,0.7-2c0.4-0.5,1.1-0.7,1.9-0.7c0.6,0,1.1,0.2,1.5,0.6
	c0.4,0.4,0.6,1,0.7,1.7v0.3h-5.6v2.3h8.7v-0.8c0-2.2-0.5-4-1.4-5.2s-2.2-1.8-3.9-1.8c-1.8,0-3.1,0.5-4.1,1.5s-1.5,2.5-1.5,4.4v1.4
	c0,1.8,0.5,3.2,1.5,4.2s2.4,1.5,4.3,1.5C380,550.8,380.9,550.7,381.7,550.4L381.7,550.4L381.7,550.4z M397.2,550.7v-8.1
	c0-1.5-0.5-2.7-1.4-3.5s-2.2-1.2-3.9-1.2c-1,0-1.9,0.2-2.8,0.5c-0.8,0.3-1.5,0.8-2,1.3l2.1,2c0.4-0.3,0.8-0.5,1.2-0.7
	c0.5-0.2,0.9-0.2,1.4-0.2c0.7,0,1.3,0.2,1.7,0.5s0.6,0.8,0.6,1.3v8L397.2,550.7L397.2,550.7z M392.3,550.6c0.6-0.2,1-0.4,1.4-0.7
	s0.6-0.7,0.6-1.2l-0.3-1.8c0,0.4-0.2,0.8-0.7,1s-1.1,0.3-2,0.3c-0.6,0-1.1-0.1-1.4-0.3s-0.5-0.5-0.5-0.9s0.1-0.7,0.4-0.9
	c0.2-0.2,0.6-0.3,1.1-0.3h3.3l-0.2-2.5h-3.2c-1.5,0-2.6,0.3-3.4,0.9s-1.1,1.6-1.1,2.8c0,1.3,0.3,2.3,1,3c0.7,0.6,1.7,1,3,1
	C391.2,550.9,391.8,550.8,392.3,550.6L392.3,550.6L392.3,550.6z M409.3,549.8c1-0.7,1.4-1.8,1.4-3.1c0-0.9-0.1-1.5-0.4-2
	s-0.7-0.9-1.1-1.1c-0.5-0.2-1-0.4-1.6-0.5s-1.1-0.2-1.7-0.2c-0.5-0.1-0.9-0.1-1.4-0.2c-0.4,0-0.8-0.1-1-0.3
	c-0.3-0.1-0.4-0.3-0.4-0.5c0-0.3,0.2-0.5,0.6-0.7s0.9-0.2,1.6-0.2c0.5,0,1.1,0.1,1.7,0.3s1.2,0.4,1.7,0.7l2-2.4
	c-0.7-0.5-1.6-0.9-2.5-1.2s-1.9-0.4-2.9-0.4c-1.6,0-2.9,0.3-3.8,1s-1.4,1.7-1.4,3c0,0.8,0.1,1.4,0.4,1.9s0.6,0.8,1,1
	s0.9,0.4,1.5,0.5s1.1,0.2,1.6,0.3s1,0.1,1.5,0.2s0.9,0.1,1.2,0.3c0.3,0.1,0.5,0.4,0.5,0.8c0,0.3-0.2,0.5-0.6,0.7s-1,0.3-1.8,0.3
	c-0.6,0-1.2-0.1-1.9-0.3c-0.7-0.2-1.3-0.5-1.9-0.9l-2.1,2.6c0.7,0.5,1.6,1,2.6,1.3s2.1,0.5,3.2,0.5
	C407.1,550.9,408.4,550.5,409.3,549.8L409.3,549.8L409.3,549.8z M418.6,550.8v-3.2h-0.8c-0.2,0-0.4-0.1-0.5-0.3s-0.2-0.4-0.2-0.7
	v-12.2h-3.3v13.1c0,1.1,0.2,1.9,0.8,2.5c0.5,0.6,1.3,0.9,2.5,0.9L418.6,550.8L418.6,550.8z M418.6,540.9V538h-6.2v2.9H418.6z
	 M424.7,536.3V533h-3.3v3.3H424.7z M424.7,550.7V538h-3.3v12.7H424.7z M431.2,550.7V538h-3.4v12.7H431.2z M438.5,550.7V543
	c0-1.6-0.4-2.9-1.1-3.8s-1.8-1.3-3.1-1.3c-0.8,0-1.5,0.2-2,0.6c-0.5,0.4-1,1-1.3,1.8l0.3,2.8c0-0.6,0.2-1.1,0.5-1.5
	c0.3-0.3,0.8-0.5,1.4-0.5s1.1,0.2,1.5,0.5s0.5,0.8,0.5,1.5v7.7L438.5,550.7L438.5,550.7z M450.5,554.4c1-1,1.5-2.3,1.5-4.1V538h-3.3
	v12.5c0,0.7-0.2,1.2-0.7,1.6c-0.5,0.4-1,0.6-1.7,0.6c-0.4,0-0.9-0.1-1.2-0.3s-0.7-0.4-1-0.7l-2.2,2.1c0.4,0.6,1.1,1.1,1.9,1.5
	c0.8,0.3,1.7,0.5,2.7,0.5C448.1,555.8,449.5,555.4,450.5,554.4L450.5,554.4L450.5,554.4z M447.6,550.3c0.5-0.4,0.9-0.9,1.2-1.6
	l-0.2-2.9c0,0.4-0.1,0.8-0.2,1.1s-0.4,0.5-0.6,0.7c-0.3,0.2-0.6,0.2-1,0.2c-0.6,0-1.1-0.2-1.5-0.6c-0.4-0.4-0.5-1-0.5-1.8v-2
	c0-0.8,0.2-1.4,0.5-1.8c0.4-0.4,0.8-0.6,1.5-0.6c0.4,0,0.7,0.1,1,0.2s0.5,0.4,0.6,0.7s0.2,0.7,0.2,1.1l0.3-2.8
	c-0.3-0.7-0.8-1.3-1.4-1.7s-1.2-0.6-1.9-0.6c-1.4,0-2.4,0.5-3.1,1.5s-1.1,2.3-1.1,4.1v2c0,1.7,0.4,3.1,1.1,4c0.7,1,1.8,1.4,3.1,1.4
	C446.4,550.9,447.1,550.7,447.6,550.3L447.6,550.3L447.6,550.3z"/>
<path class="st0" d="M529.8,550.7V538h-3.3v12.7H529.8z M537.1,550.7V543c0-1.6-0.4-2.9-1.1-3.8s-1.8-1.3-3.1-1.3
	c-0.8,0-1.5,0.2-2,0.6c-0.5,0.4-1,1-1.3,1.8l0.3,2.8c0-0.6,0.2-1.1,0.5-1.5c0.3-0.3,0.8-0.5,1.4-0.5c0.7,0,1.2,0.2,1.5,0.5
	s0.5,0.8,0.5,1.5v7.7L537.1,550.7L537.1,550.7z M549.5,549.4c1-1,1.4-2.3,1.4-4v-2.1c0-1.7-0.5-3.1-1.4-4s-2.3-1.4-4-1.4
	s-3.1,0.5-4,1.4c-1,1-1.4,2.3-1.4,4v2.1c0,1.8,0.5,3.1,1.4,4.1s2.3,1.5,4,1.5S548.6,550.4,549.5,549.4L549.5,549.4L549.5,549.4z
	 M543.9,547c-0.4-0.4-0.6-1-0.6-1.7v-2.1c0-0.7,0.2-1.3,0.6-1.7s0.9-0.6,1.6-0.6s1.2,0.2,1.6,0.6c0.4,0.4,0.6,0.9,0.6,1.7v2.1
	c0,0.7-0.2,1.3-0.6,1.7c-0.4,0.4-0.9,0.6-1.6,0.6S544.3,547.4,543.9,547L543.9,547z M557.6,550.7V538H554v12.7H557.6z M563.1,538.8
	c-0.3-0.3-0.7-0.6-1.1-0.7s-0.9-0.2-1.4-0.2c-0.7,0-1.3,0.2-1.8,0.6s-1,1-1.4,1.8l0.3,3.3c0-0.8,0.2-1.4,0.5-1.8
	c0.4-0.4,0.9-0.7,1.6-0.7c0.3,0,0.6,0,0.8,0.1s0.4,0.2,0.6,0.4L563.1,538.8L563.1,538.8L563.1,538.8z M569.9,550.7v-3.2H569
	c-0.2,0-0.4-0.1-0.5-0.3s-0.2-0.4-0.2-0.7v-12.2H565v13.1c0,1.1,0.2,1.9,0.8,2.5s1.3,0.9,2.5,0.9L569.9,550.7L569.9,550.7z
	 M569.9,540.9V538h-6.2v2.9H569.9z M576.2,550.7v-17.8h-3.3v17.8H576.2z M583.5,550.7V543c0-1.6-0.4-2.9-1.1-3.8s-1.8-1.3-3.1-1.3
	c-0.8,0-1.5,0.2-2,0.6c-0.5,0.4-1,1-1.3,1.8l0.3,2.8c0-0.6,0.2-1.1,0.5-1.5c0.3-0.3,0.8-0.5,1.4-0.5c0.7,0,1.2,0.2,1.5,0.5
	s0.5,0.8,0.5,1.5v7.7L583.5,550.7L583.5,550.7z M589.9,536.3V533h-3.3v3.3H589.9z M589.9,550.7V538h-3.3v12.7H589.9z M596.4,550.7
	V538h-3.3v12.7H596.4z M603.7,550.7V543c0-1.6-0.4-2.9-1.1-3.8s-1.8-1.3-3.1-1.3c-0.8,0-1.5,0.2-2,0.6c-0.5,0.4-1,1-1.3,1.8l0.3,2.8
	c0-0.6,0.2-1.1,0.5-1.5c0.3-0.3,0.8-0.5,1.4-0.5c0.7,0,1.2,0.2,1.5,0.5s0.5,0.8,0.5,1.5v7.7L603.7,550.7L603.7,550.7z M615.7,554.4
	c1-1,1.5-2.3,1.5-4.1V538h-3.3v12.5c0,0.7-0.2,1.2-0.7,1.6c-0.5,0.4-1,0.6-1.7,0.6c-0.4,0-0.8-0.1-1.2-0.3s-0.7-0.4-1-0.7l-2.2,2.1
	c0.4,0.6,1.1,1.1,1.8,1.5c0.8,0.3,1.7,0.5,2.7,0.5C613.3,555.8,614.7,555.3,615.7,554.4L615.7,554.4L615.7,554.4z M612.8,550.3
	c0.5-0.4,0.9-0.9,1.2-1.6l-0.2-2.9c0,0.4-0.1,0.8-0.2,1.1c-0.2,0.3-0.4,0.5-0.6,0.7c-0.3,0.2-0.6,0.2-1,0.2c-0.6,0-1.1-0.2-1.5-0.6
	c-0.3-0.4-0.5-1-0.5-1.8v-2c0-0.8,0.2-1.4,0.5-1.8c0.3-0.4,0.8-0.6,1.5-0.6c0.4,0,0.7,0.1,1,0.2s0.5,0.4,0.6,0.7s0.2,0.7,0.2,1.1
	l0.3-2.8c-0.3-0.7-0.8-1.3-1.3-1.7s-1.2-0.6-1.8-0.6c-1.3,0-2.4,0.5-3.1,1.5c-0.8,1-1.1,2.3-1.1,4.1v2c0,1.7,0.4,3.1,1.1,4
	c0.7,1,1.8,1.4,3.1,1.4C611.6,550.9,612.3,550.7,612.8,550.3L612.8,550.3L612.8,550.3z"/>
<path class="st0" d="M291.2,549.5c1.2-0.9,1.8-2.3,1.8-4l0,0c0-1-0.2-1.8-0.5-2.4s-0.8-1.1-1.3-1.5s-1.2-0.6-1.9-0.8
	c-0.7-0.2-1.4-0.3-2-0.5c-0.6-0.1-1.2-0.2-1.7-0.4c-0.5-0.1-1-0.4-1.3-0.7s-0.5-0.7-0.5-1.3l0,0c0-0.6,0.3-1.1,0.8-1.4
	c0.6-0.3,1.4-0.5,2.4-0.5c0.7,0,1.4,0.1,2.1,0.4c0.8,0.3,1.5,0.6,2.1,1.1l1.4-2.8c-0.9-0.6-1.8-1-2.8-1.4s-2-0.5-2.9-0.5
	c-2.1,0-3.7,0.5-4.8,1.4c-1.1,1-1.7,2.3-1.7,4l0,0c0,1.1,0.2,2,0.5,2.6c0.4,0.6,0.8,1.1,1.4,1.5c0.6,0.3,1.2,0.6,2,0.8
	c0.7,0.2,1.4,0.3,2.1,0.4c0.6,0.1,1.1,0.2,1.6,0.3s0.9,0.3,1.2,0.6c0.3,0.3,0.5,0.7,0.5,1.2l0,0c0,0.7-0.3,1.2-0.9,1.6
	s-1.5,0.5-2.5,0.5c-0.9,0-1.9-0.2-2.8-0.5s-1.7-0.7-2.4-1.3l-1.5,2.8c0.6,0.5,1.2,0.9,1.9,1.2c0.7,0.3,1.5,0.6,2.3,0.8
	s1.6,0.3,2.5,0.3C288.4,550.9,290,550.4,291.2,549.5L291.2,549.5L291.2,549.5z M306,555.8V538h-3.3v17.8H306z M301.6,550.3
	c0.5-0.4,0.9-0.9,1.2-1.6l-0.2-2.9c0,0.4-0.1,0.8-0.2,1.1s-0.4,0.5-0.6,0.7c-0.3,0.2-0.6,0.2-1,0.2c-0.6,0-1.1-0.2-1.5-0.6
	c-0.4-0.4-0.5-1-0.5-1.8v-2c0-0.8,0.2-1.4,0.5-1.8c0.4-0.4,0.8-0.6,1.5-0.6c0.4,0,0.7,0.1,1,0.2s0.5,0.4,0.6,0.7s0.2,0.7,0.2,1.1
	l0.3-2.8c-0.3-0.7-0.8-1.3-1.4-1.7s-1.2-0.6-1.9-0.6c-1.4,0-2.4,0.5-3.1,1.5s-1.1,2.3-1.1,4.1v2c0,1.7,0.4,3.1,1.1,4
	c0.7,1,1.8,1.4,3.1,1.4C300.4,550.9,301.1,550.7,301.6,550.3L301.6,550.3L301.6,550.3z M319.9,550.7V538h-3.3v12.7H319.9z
	 M309.3,538v7.8c0,1.6,0.4,2.8,1.1,3.7s1.8,1.3,3.1,1.3c0.9,0,1.5-0.2,2.1-0.8c0.5-0.5,0.9-1.1,1.1-1.7l-0.2-2.8
	c0,0.6-0.2,1.1-0.5,1.5c-0.3,0.3-0.8,0.5-1.5,0.5s-1.1-0.2-1.5-0.5s-0.5-0.8-0.5-1.4V538H309.3L309.3,538z M333.2,550.7v-8.1
	c0-1.5-0.5-2.7-1.4-3.5s-2.2-1.2-3.9-1.2c-1,0-1.9,0.2-2.8,0.5c-0.8,0.3-1.5,0.8-2,1.3l2.1,2c0.4-0.3,0.8-0.5,1.2-0.7
	c0.5-0.2,0.9-0.2,1.4-0.2c0.7,0,1.3,0.2,1.7,0.5s0.6,0.8,0.6,1.3v8L333.2,550.7L333.2,550.7z M328.4,550.6c0.6-0.2,1-0.4,1.4-0.7
	s0.6-0.7,0.6-1.2l-0.3-1.8c0,0.4-0.2,0.8-0.7,1s-1.1,0.3-2,0.3c-0.6,0-1.1-0.1-1.4-0.3s-0.5-0.5-0.5-0.9s0.1-0.7,0.4-0.9
	c0.2-0.2,0.6-0.3,1.1-0.3h3.3l-0.2-2.5h-3.2c-1.5,0-2.6,0.3-3.4,0.9s-1.1,1.6-1.1,2.8c0,1.3,0.3,2.3,1,3c0.7,0.6,1.7,1,3,1
	C327.2,550.9,327.8,550.8,328.4,550.6L328.4,550.6L328.4,550.6z M340.1,550.7V538h-3.6v12.7H340.1z M345.6,538.8
	c-0.3-0.3-0.7-0.6-1.1-0.7s-0.9-0.2-1.4-0.2c-0.7,0-1.3,0.2-1.8,0.6s-1,1-1.4,1.8l0.3,3.3c0-0.8,0.2-1.4,0.5-1.8s0.9-0.7,1.6-0.7
	c0.3,0,0.6,0,0.8,0.1c0.2,0.1,0.4,0.2,0.6,0.4L345.6,538.8L345.6,538.8L345.6,538.8z M354.8,550.4c0.8-0.3,1.6-0.8,2.2-1.4l-2.2-1.9
	c-0.4,0.3-0.8,0.5-1.2,0.7s-0.9,0.2-1.3,0.2c-0.9,0-1.5-0.2-2-0.7s-0.7-1.1-0.7-2v-1.6c0-0.9,0.2-1.6,0.7-2s1.1-0.7,1.9-0.7
	c0.6,0,1.1,0.2,1.5,0.6c0.4,0.4,0.6,1,0.7,1.7v0.3h-5.6v2.3h8.7v-0.8c0-2.2-0.5-4-1.4-5.2s-2.2-1.8-3.9-1.8c-1.8,0-3.1,0.5-4.1,1.5
	s-1.5,2.5-1.5,4.4v1.4c0,1.8,0.5,3.2,1.5,4.2s2.4,1.5,4.3,1.5C353.2,550.8,354,550.7,354.8,550.4L354.8,550.4L354.8,550.4z"/>
<path class="st0" d="M665.9,302.2v-17.8h-3.3v17.8H665.9z M674.5,302.2V299h-10.4v3.2H674.5z M685.8,301c1-1,1.4-2.3,1.4-4v-2.1
	c0-1.7-0.5-3.1-1.4-4s-2.3-1.4-4-1.4s-3.1,0.5-4,1.4c-1,1-1.4,2.3-1.4,4v2.1c0,1.8,0.5,3.1,1.4,4.1c1,1,2.3,1.5,4,1.5
	S684.9,301.9,685.8,301L685.8,301L685.8,301z M680.2,298.6c-0.4-0.4-0.5-1-0.5-1.7v-2.1c0-0.7,0.2-1.3,0.5-1.6
	c0.4-0.4,0.9-0.6,1.6-0.6s1.2,0.2,1.6,0.6c0.4,0.4,0.6,0.9,0.6,1.6v2.1c0,0.7-0.2,1.3-0.6,1.7c-0.4,0.4-0.9,0.6-1.6,0.6
	S680.6,299,680.2,298.6L680.2,298.6z M698.5,301.9c0.8-0.4,1.5-0.8,2-1.5l-2.2-2.2c-0.3,0.3-0.7,0.6-1.1,0.7
	c-0.4,0.2-0.9,0.3-1.3,0.3c-0.8,0-1.5-0.2-2-0.7s-0.7-1.1-0.7-2v-1.4c0-0.8,0.2-1.5,0.7-1.9c0.5-0.5,1.1-0.7,2-0.7
	c0.5,0,0.9,0.1,1.3,0.2s0.8,0.4,1.1,0.7l2.2-2.1c-0.5-0.6-1.2-1.1-2-1.5s-1.8-0.5-2.8-0.5c-1.8,0-3.2,0.5-4.2,1.5s-1.5,2.4-1.5,4.3
	v1.4c0,1.9,0.5,3.3,1.5,4.3s2.4,1.5,4.2,1.5C696.7,302.4,697.6,302.2,698.5,301.9L698.5,301.9L698.5,301.9z M712.8,302.2v-8.1
	c0-1.5-0.5-2.7-1.4-3.5s-2.2-1.2-3.9-1.2c-1,0-1.9,0.2-2.8,0.5s-1.5,0.8-2,1.4l2.1,2c0.4-0.3,0.8-0.5,1.2-0.6
	c0.5-0.1,0.9-0.2,1.4-0.2c0.7,0,1.3,0.2,1.7,0.5s0.6,0.8,0.6,1.4v8h3.1V302.2z M707.9,302.2c0.6-0.1,1-0.4,1.4-0.7
	c0.4-0.3,0.6-0.7,0.7-1.2l-0.3-1.8c0,0.4-0.2,0.8-0.7,1s-1.1,0.3-2,0.3c-0.6,0-1.1-0.1-1.4-0.3c-0.3-0.2-0.5-0.5-0.5-0.9
	s0.1-0.7,0.4-0.9s0.6-0.3,1.1-0.3h3.3l-0.2-2.5h-3.2c-1.5,0-2.6,0.3-3.4,0.9c-0.8,0.6-1.1,1.6-1.1,2.8c0,1.3,0.3,2.3,1,3
	c0.7,0.6,1.7,1,3,1C706.8,302.4,707.4,302.3,707.9,302.2L707.9,302.2L707.9,302.2z M716.1,284.4v14.4c0,1.1,0.3,1.9,0.8,2.5
	s1.3,0.9,2.4,0.9h1.7V299h-0.6c-0.3,0-0.6-0.1-0.8-0.3c-0.2-0.2-0.3-0.4-0.3-0.7v-13.6H716.1L716.1,284.4z"/>
<path class="st0" d="M576.4,440.2c1.1-1.1,1.7-2.8,1.7-4.9V424h-3.3v11.4c0,1-0.3,1.8-0.8,2.4s-1.3,0.8-2.3,0.8s-1.8-0.3-2.3-0.8
	c-0.5-0.6-0.8-1.4-0.8-2.4V424h-3.3v11.3c0,2.1,0.6,3.7,1.7,4.9s2.7,1.7,4.8,1.7S575.3,441.4,576.4,440.2L576.4,440.2L576.4,440.2z
	 M587.5,441.8v-16.3h-3.3v16.3H587.5z M592.3,427.2V424h-13v3.2H592.3z M602.8,441.2c0.9-0.5,1.6-1.2,2.2-2.1c0.6-0.9,1-2,1.2-3.3
	h-3.5c-0.2,0.9-0.5,1.6-1,2.1s-1.1,0.7-1.8,0.7c-0.9,0-1.7-0.3-2.2-0.9s-0.8-1.4-0.8-2.4v-4.9c0-1,0.3-1.9,0.8-2.4s1.2-0.9,2.2-0.9
	c0.5,0,0.9,0.1,1.3,0.3s0.7,0.5,1,1s0.5,0.9,0.6,1.5h3.5c-0.2-1.3-0.6-2.4-1.2-3.3s-1.3-1.6-2.2-2.1s-1.9-0.7-3-0.7
	c-1.4,0-2.5,0.3-3.5,0.8s-1.7,1.3-2.2,2.3s-0.8,2.2-0.8,3.6v4.9c0,1.4,0.2,2.6,0.8,3.6c0.5,1,1.2,1.7,2.2,2.3c1,0.5,2.1,0.8,3.5,0.8
	C601,442,602,441.7,602.8,441.2L602.8,441.2L602.8,441.2z M620.9,440.6c0.9-0.9,1.3-2.1,1.3-3.7v-8.1c0-1.6-0.5-2.8-1.3-3.7
	c-0.9-0.9-2.2-1.3-4-1.3s-3.1,0.5-4,1.3c-0.9,0.9-1.3,2.1-1.3,3.7v8.1c0,1.5,0.4,2.8,1.3,3.7s2.2,1.4,4,1.4S620,441.5,620.9,440.6
	L620.9,440.6L620.9,440.6z M615.4,438c-0.3-0.5-0.5-1.1-0.5-2v-6.4c0-0.8,0.2-1.5,0.5-2s0.8-0.7,1.5-0.7s1.2,0.2,1.5,0.7
	s0.5,1.1,0.5,2v6.4c0,0.8-0.2,1.5-0.5,2s-0.8,0.7-1.5,0.7S615.7,438.5,615.4,438L615.4,438z M634,421.9l-7.9,23.2h3.2l7.9-23.2H634
	L634,421.9z M643.9,441.8V424h-3.3v17.8H643.9z M652.4,441.8v-3.2H642v3.2H652.4z M663.8,440.5c1-1,1.4-2.3,1.4-4v-2.1
	c0-1.7-0.5-3.1-1.4-4s-2.3-1.4-4-1.4s-3.1,0.5-4,1.4c-1,1-1.4,2.3-1.4,4v2.1c0,1.8,0.5,3.1,1.4,4.1c1,1,2.3,1.5,4,1.5
	S662.8,441.5,663.8,440.5L663.8,440.5L663.8,440.5z M658.2,438.1c-0.4-0.4-0.6-1-0.6-1.7v-2.1c0-0.7,0.2-1.3,0.6-1.6
	c0.4-0.4,0.9-0.6,1.6-0.6s1.2,0.2,1.6,0.6c0.4,0.4,0.6,0.9,0.6,1.6v2.1c0,0.7-0.2,1.3-0.6,1.7c-0.4,0.4-0.9,0.6-1.6,0.6
	S658.5,438.5,658.2,438.1L658.2,438.1z M671.6,441.8v-12.7h-3.3v12.7H671.6z M678.9,441.8v-7.7c0-1.6-0.4-2.9-1.1-3.8
	s-1.8-1.4-3.1-1.4c-0.8,0-1.5,0.2-2,0.6s-1,1-1.3,1.8l0.3,2.8c0-0.6,0.2-1.1,0.5-1.5s0.8-0.5,1.4-0.5c0.7,0,1.2,0.2,1.5,0.5
	s0.5,0.8,0.5,1.5v7.7H678.9L678.9,441.8z M692.4,441.8V424h-3.3v17.8H692.4z M688,441.4c0.5-0.4,0.9-0.9,1.2-1.6l-0.2-2.9
	c0,0.4-0.1,0.8-0.2,1.1c-0.2,0.3-0.4,0.5-0.6,0.7c-0.3,0.1-0.6,0.2-1,0.2c-0.6,0-1.1-0.2-1.5-0.6c-0.3-0.4-0.5-1-0.5-1.8v-2
	c0-0.8,0.2-1.4,0.5-1.8s0.8-0.6,1.5-0.6c0.4,0,0.7,0.1,1,0.2s0.5,0.4,0.6,0.7s0.2,0.7,0.2,1.1l0.3-2.8c-0.3-0.7-0.8-1.3-1.3-1.7
	s-1.2-0.6-1.8-0.6c-1.3,0-2.4,0.5-3.1,1.5s-1.1,2.3-1.1,4.1v2c0,1.7,0.4,3.1,1.1,4c0.7,1,1.8,1.4,3.1,1.4
	C686.9,442,687.5,441.8,688,441.4L688,441.4L688,441.4z M704.8,440.5c1-1,1.4-2.3,1.4-4v-2.1c0-1.7-0.5-3.1-1.4-4s-2.3-1.4-4-1.4
	s-3.1,0.5-4,1.4c-1,1-1.4,2.3-1.4,4v2.1c0,1.8,0.5,3.1,1.4,4.1c1,1,2.3,1.5,4,1.5S703.9,441.5,704.8,440.5L704.8,440.5L704.8,440.5z
	 M699.2,438.1c-0.4-0.4-0.6-1-0.6-1.7v-2.1c0-0.7,0.2-1.3,0.6-1.6c0.4-0.4,0.9-0.6,1.6-0.6s1.2,0.2,1.6,0.6c0.4,0.4,0.6,0.9,0.6,1.6
	v2.1c0,0.7-0.2,1.3-0.6,1.7c-0.4,0.4-0.9,0.6-1.6,0.6S699.6,438.5,699.2,438.1L699.2,438.1z M712.7,441.8v-12.7h-3.3v12.7H712.7z
	 M720,441.8v-7.7c0-1.6-0.4-2.9-1.1-3.8s-1.8-1.4-3.1-1.4c-0.8,0-1.5,0.2-2,0.6s-1,1-1.3,1.8l0.3,2.8c0-0.6,0.2-1.1,0.5-1.5
	s0.8-0.5,1.4-0.5c0.7,0,1.2,0.2,1.5,0.5s0.5,0.8,0.5,1.5v7.7H720L720,441.8z"/>
<path class="st0" d="M173.1,532.9v3.2h7.1l-7.3,11.5v3h11.5v-3.2h-7.5l7.3-11.5v-3H173.1L173.1,532.9z M196.1,549.4
	c0.9-1,1.4-2.3,1.4-4v-2.1c0-1.7-0.5-3.1-1.4-4s-2.3-1.4-4-1.4s-3.1,0.5-4,1.4s-1.4,2.3-1.4,4v2.1c0,1.8,0.5,3.1,1.4,4.1
	s2.3,1.5,4,1.5S195.2,550.4,196.1,549.4L196.1,549.4L196.1,549.4z M190.5,547c-0.4-0.4-0.6-1-0.6-1.7v-2.1c0-0.7,0.2-1.3,0.6-1.7
	s0.9-0.6,1.6-0.6s1.2,0.2,1.6,0.6c0.4,0.4,0.6,0.9,0.6,1.7v2.1c0,0.7-0.2,1.3-0.6,1.7c-0.4,0.4-0.9,0.6-1.6,0.6
	S190.9,547.4,190.5,547L190.5,547z M203.9,550.7V538h-3.3v12.7H203.9z M211.3,550.7V543c0-1.6-0.4-2.9-1.1-3.8
	c-0.7-0.9-1.8-1.3-3.1-1.3c-0.8,0-1.5,0.2-2,0.6c-0.5,0.4-1,1-1.3,1.8l0.3,2.8c0-0.6,0.2-1.1,0.5-1.5c0.3-0.3,0.8-0.5,1.4-0.5
	c0.6,0,1.1,0.2,1.5,0.5s0.5,0.8,0.5,1.5v7.7L211.3,550.7L211.3,550.7z M222.5,550.4c0.8-0.3,1.6-0.8,2.2-1.4l-2.2-1.9
	c-0.4,0.3-0.8,0.5-1.2,0.7s-0.9,0.2-1.3,0.2c-0.9,0-1.6-0.2-2-0.7c-0.5-0.5-0.7-1.1-0.7-2v-1.6c0-0.9,0.2-1.6,0.7-2
	c0.4-0.5,1.1-0.7,1.9-0.7c0.6,0,1.1,0.2,1.5,0.6c0.4,0.4,0.6,1,0.7,1.7v0.3h-5.6v2.3h8.7v-0.8c0-2.2-0.5-4-1.4-5.2s-2.2-1.8-3.9-1.8
	c-1.8,0-3.1,0.5-4.1,1.5s-1.5,2.5-1.5,4.4v1.4c0,1.8,0.5,3.2,1.5,4.2s2.4,1.5,4.3,1.5C220.8,550.8,221.7,550.7,222.5,550.4
	L222.5,550.4L222.5,550.4z"/>
<path class="st0" d="M153.9,563.9c-0.7-1.2-1.6-2.3-2.7-3.3c-3.1-2.8-6.6-4.1-10.2-4.2c-3.7,0-7.5,1.3-10.7,4
	c-1.4,1.1-2.6,2.4-3.5,3.9c-2.3,3.6-3,8.1-2.3,12.8c0.7,4.6,2.9,9.4,6.3,13.7c2.5,3.1,5.6,6,9.4,8.4c0.4,0.2,0.8,0.2,1.1,0
	c2.6-1.5,4.8-3.5,6.8-5.6l0,0c4-4.4,6.7-9.7,7.7-14.9C156.9,573.2,156.4,568,153.9,563.9L153.9,563.9L153.9,563.9z M148.4,572.5
	c0,4.4-3.6,8-7.9,8s-7.9-3.6-7.9-8s3.6-8,7.9-8S148.4,568.1,148.4,572.5L148.4,572.5z"/>
<path class="st0" d="M616.2,226.4l19.1,19.9l19.1-19.9c2.2-2.4,3.5-5.7,3.5-9.1v-0.6c0-6.8-5.1-12.3-11.5-12.3c-3.5,0-6.8,1.7-9,4.6
	l-2.2,3l-2.2-3c-2.2-2.9-5.5-4.6-9-4.6c-6.3,0-11.5,5.5-11.5,12.3v0.6C612.7,220.7,613.9,224,616.2,226.4L616.2,226.4L616.2,226.4z"
	/>
<path class="st0" d="M287.9,238l-10.1-1.5l-0.6,3.1c0,0-0.1,4.9,4.3,5.6c4.4,0.7,5.9-4.1,5.9-4.1L287.9,238L287.9,238L287.9,238z"/>
<path class="st0" d="M289.2,210.9c-4.4-0.8-9.3,4-10.3,8.9c-0.4,2-0.4,4.1-0.2,6.1c0.1,1,0.2,2,0.2,2.9c0,1.2-0.1,2.4-0.2,3.6
	c-0.1,1.7,0.4,1.8,2,1.8l5.6,0.8c0.6,0.1,1.8,0.6,2.1-0.2c0.4-0.6,0-1.6,0.2-2.3c0.2-0.9,0.5-1.8,0.8-2.7c0.7-2,2.6-3.7,3.7-5.5
	c1.4-2.2,2-4.2,2-6.8C295.1,214.4,292.8,211.5,289.2,210.9L289.2,210.9L289.2,210.9z"/>
<path class="st0" d="M295.9,230.9l10,3.9c0,0-2,8-8.1,5.7C291.6,238.2,295.9,230.9,295.9,230.9L295.9,230.9L295.9,230.9z"/>
<path class="st0" d="M310,206.2c4.2,1.6,6,8.3,4.2,13.1c-0.7,2-1.9,3.8-3.1,5.5c-0.6,0.8-1.2,1.6-1.8,2.5c-0.7,1.1-1.2,2.2-1.8,3.3
	c-0.8,1.6-1.4,1.4-2.7,0.6l-5.4-2.1c-0.6-0.2-1.8-0.4-1.8-1.2c0-0.7,0.8-1.4,1-2.1c0.3-0.9,0.5-1.9,0.7-2.8c0.4-2.1-0.3-4.5-0.2-6.6
	c0-2.6,0.6-4.7,2-7C303,206.2,306.6,204.9,310,206.2L310,206.2L310,206.2z"/>
<g>
	<g>
		<defs>
			<rect id="SVGID_1_" x="0.1" y="0.1" width="793.6" height="793.6"/>
		</defs>
		<clipPath id="SVGID_00000044139330539395421360000002286819585382381218_">
			<use xlink:href="#SVGID_1_"  style="overflow:visible;"/>
		</clipPath>
		<g style="clip-path:url(#SVGID_00000044139330539395421360000002286819585382381218_);">
			<path class="st0" d="M463.2,208.1v-4.3H453v4.3h-6V246h22.2v-37.9H463.2L463.2,208.1z M463.9,227.1l-11.1,10.6l5.3-9.1l-5.9-2
				l11.8-10.8l-6,9.8L463.9,227.1L463.9,227.1L463.9,227.1z"/>
			<polygon class="st3" points="0,0 0,28.4 28.4,28.4 28.4,0 			"/>
			<polygon class="st3" points="0,765.3 0,793.7 28.4,793.7 28.4,765.3 			"/>
			<polygon class="st3" points="765.3,0 765.3,28.4 793.7,28.4 793.7,0 			"/>
		</g>
	</g>
</g>
<polygon class="st3" points="765.3,765.3 765.3,793.7 793.7,793.7 793.7,765.3 "/>
<path class="st3" d="M462,5.9l-1.3,7.6l7.4,1.3l1.3-7.6L462,5.9L462,5.9z M528.9,23.1l-2.6,7.2l7,2.5l2.6-7.2L528.9,23.1L528.9,23.1
	z M592,51.8l-3.9,6.6l6.5,3.8l3.9-6.6L592,51.8L592,51.8z M648.7,90.9l-4.9,5.9l5.8,4.8l4.9-5.9L648.7,90.9L648.7,90.9z
	 M698.1,139.3l-5.9,4.9l4.8,5.8l5.9-4.9L698.1,139.3L698.1,139.3z M738.2,195.4l-6.6,3.9l3.8,6.5l6.6-3.9L738.2,195.4L738.2,195.4z
	 M768.2,257.9l-7.2,2.6l2.5,7l7.2-2.6L768.2,257.9L768.2,257.9z M786.6,324.5l-7.6,1.3l1.3,7.4l7.6-1.3L786.6,324.5L786.6,324.5z
	 M787.9,461.9l-7.6-1.3L779,468l7.6,1.3L787.9,461.9L787.9,461.9z M770.7,528.8l-7.2-2.6l-2.5,7l7.2,2.6L770.7,528.8L770.7,528.8z
	 M741.9,591.9l-6.6-3.9l-3.8,6.5l6.6,3.9L741.9,591.9L741.9,591.9z M702.9,648.7l-5.9-4.9l-4.8,5.8l5.9,4.9L702.9,648.7L702.9,648.7
	z M654.4,698.1l-4.9-5.9l-5.8,4.8l4.9,5.9L654.4,698.1L654.4,698.1z M598.4,738.2l-3.9-6.6l-6.5,3.8l3.9,6.6L598.4,738.2
	L598.4,738.2z M535.8,768.1l-2.6-7.2l-7,2.5l2.6,7.2L535.8,768.1L535.8,768.1z M469.2,786.6L468,779l-7.4,1.3l1.3,7.6L469.2,786.6
	L469.2,786.6z M331.9,787.9l1.3-7.6l-7.4-1.3l-1.3,7.6L331.9,787.9L331.9,787.9z M265,770.7l2.6-7.2l-7-2.5l-2.6,7.2L265,770.7
	L265,770.7z M201.8,742l3.9-6.6l-6.5-3.8l-3.9,6.6L201.8,742L201.8,742z M145.1,702.9l4.9-5.9l-5.8-4.8l-4.9,5.9L145.1,702.9
	L145.1,702.9L145.1,702.9z M95.6,654.4l5.9-4.9l-4.8-5.8l-5.9,4.9L95.6,654.4L95.6,654.4z M55.6,598.4l6.6-3.9l-3.8-6.5l-6.6,3.9
	L55.6,598.4L55.6,598.4z M25.6,535.9l7.2-2.6l-2.5-7l-7.2,2.6L25.6,535.9L25.6,535.9z M7.1,469.3l7.6-1.3l-1.3-7.4l-7.6,1.3
	L7.1,469.3L7.1,469.3z M5.8,331.9l7.6,1.3l1.3-7.4l-7.6-1.3L5.8,331.9L5.8,331.9z M23,265l7.2,2.6l2.5-7l-7.2-2.6L23,265L23,265z
	 M51.7,201.9l6.6,3.9l3.8-6.5l-6.6-3.9L51.7,201.9L51.7,201.9z M90.7,145.1l5.9,4.9l4.8-5.8l-5.9-4.9L90.7,145.1L90.7,145.1z
	 M139.2,95.7l4.9,5.9l5.8-4.8l-4.9-5.9L139.2,95.7L139.2,95.7z M195.2,55.6l3.9,6.6l6.5-3.8l-3.9-6.6L195.2,55.6L195.2,55.6z
	 M257.8,25.6l2.6,7.2l7-2.5l-2.6-7.2L257.8,25.6L257.8,25.6z M324.3,7.1l1.3,7.6l7.4-1.3l-1.3-7.6L324.3,7.1L324.3,7.1z"/>
<path class="st3" d="M674.2,113.8l-19.4,19.6l5.3,5.3l19.4-19.6L674.2,113.8L674.2,113.8z M679.8,674.2l-19.6-19.4l-5.3,5.3
	l19.6,19.4L679.8,674.2L679.8,674.2L679.8,674.2z M119.4,679.8l19.4-19.6l-5.3-5.3l-19.4,19.6L119.4,679.8L119.4,679.8z
	 M113.9,119.4l19.6,19.4l5.3-5.3l-19.6-19.4L113.9,119.4L113.9,119.4z"/>
<polygon class="st3" points="391.5,28.2 391.5,7.6 391,8.1 400.9,28.2 407,28.2 407,1.6 402.2,1.6 402.2,22.5 402.7,22 392.8,1.6 
	386.7,1.6 386.7,28.2 "/>
<polygon class="st3" points="1.6,407.4 1.6,412.5 28.2,406.4 28.2,401.7 9.6,396.7 28.2,392 28.2,387.3 1.6,381.2 1.6,386.3 
	19.3,389.8 1.6,394.8 1.6,398.9 19.3,404 "/>
<path class="st3" d="M764.8,393.6h26.6v-5h-26.6V393.6L764.8,393.6z M764.8,406.4h4.8v-16h-4.8V406.4L764.8,406.4z M775.6,404.4h4.8
	v-14h-4.8V404.4L775.6,404.4z M786.5,406.4h4.8v-16h-4.8V406.4L786.5,406.4z"/>
<path class="st3" d="M404.1,790.3c1.8-1.4,2.6-3.4,2.6-6l0,0c0-1.5-0.2-2.7-0.8-3.7s-1.2-1.7-2-2.2s-1.8-1-2.8-1.2s-2-0.5-3-0.7
	c-0.9-0.2-1.8-0.4-2.6-0.6c-0.8-0.2-1.5-0.5-2-1s-0.8-1.1-0.8-1.9l0,0c0-0.9,0.4-1.6,1.3-2.1c0.8-0.5,2-0.8,3.6-0.8
	c1,0,2.1,0.2,3.2,0.6c1.1,0.4,2.2,0.9,3.2,1.7l2.1-4.2c-1.3-0.9-2.7-1.6-4.1-2.1c-1.5-0.5-3-0.7-4.4-0.7c-3.1,0-5.5,0.7-7.2,2.1
	c-1.7,1.4-2.6,3.4-2.6,6l0,0c0,1.6,0.3,2.9,0.8,3.9s1.3,1.7,2.1,2.2c0.9,0.5,1.9,0.9,2.9,1.1c1.1,0.2,2.1,0.4,3.1,0.6
	c0.9,0.1,1.7,0.3,2.4,0.5c0.7,0.2,1.3,0.5,1.8,0.9s0.7,1,0.7,1.8l0,0c0,1-0.5,1.8-1.4,2.3s-2.2,0.8-3.8,0.8c-1.4,0-2.8-0.2-4.1-0.7
	s-2.5-1.1-3.5-2l-2.3,4.1c0.9,0.7,1.8,1.3,2.9,1.8s2.2,0.9,3.4,1.1c1.2,0.3,2.5,0.4,3.7,0.4C399.8,792.3,402.3,791.6,404.1,790.3
	L404.1,790.3L404.1,790.3z"/>
</svg>
